<?xml version="1.0" standalone="no"?>
<!DOCTYPE svg PUBLIC "-//W3C//DTD SVG 20010904//EN"
 "http://www.w3.org/TR/2001/REC-SVG-20010904/DTD/svg10.dtd">
<svg version="1.0" xmlns="http://www.w3.org/2000/svg"
 width="64.000000pt" height="64.000000pt" viewBox="0 0 64.000000 64.000000"
 preserveAspectRatio="xMidYMid meet">
<metadata>
Created by potrace 1.16, written by Peter Selinger 2001-2019
</metadata>
<g transform="translate(0.000000,64.000000) scale(0.100000,-0.100000)"
fill="#000000" stroke="none">
<path d="M22 628 c-9 -9 -12 -76 -12 -239 0 -194 2 -230 16 -243 12 -13 41
-16 146 -16 111 0 134 -3 151 -18 21 -18 103 -24 145 -9 18 7 22 5 22 -10 0
-25 70 -93 96 -93 26 0 44 19 44 45 0 26 -72 98 -93 93 -21 -4 -21 0 -7 50 16
53 1 112 -35 140 -24 19 -25 23 -25 154 0 91 -4 138 -12 146 -17 17 -419 17
-436 0z m418 -183 l0 -85 -40 0 c-52 0 -94 -22 -116 -60 -18 -29 -20 -29 -108
-32 l-91 -3 -3 -28 c-6 -48 11 -57 104 -57 45 0 86 -4 89 -10 4 -6 -31 -10
-99 -10 -82 0 -108 3 -120 16 -13 13 -16 44 -16 185 l0 169 200 0 200 0 0 -85z
m33 -155 c38 -42 37 -92 -2 -131 -87 -86 -225 30 -150 125 43 54 105 57 152 6z"/>
</g>
</svg>
